<?xml version="1.0" ?><!DOCTYPE svg  PUBLIC '-//W3C//DTD SVG 1.1//EN'
        'http://www.w3.org/Graphics/SVG/1.1/DTD/svg11.dtd'>
<svg enable-background="new 0 0 91 91" height="91px" id="Layer_1" version="1.1" viewBox="0 0 91 91" width="91px" xml:space="preserve" xmlns="http://www.w3.org/2000/svg" xmlns:xlink="http://www.w3.org/1999/xlink"><g><g><g><g><path d="M43.378,90.174c0.475,0.49,1.127,0.77,1.811,0.77c0.682,0,1.336-0.279,1.809-0.77      c1.375-1.428,33.656-35.152,33.656-54.147c0-19.552-15.91-35.46-35.465-35.46c-19.551,0-35.455,15.908-35.455,35.46      C9.733,55.021,42.005,88.746,43.378,90.174z M45.188,5.592c16.785,0,30.439,13.654,30.439,30.435      c0,14.61-23.635,41.334-30.439,48.725c-6.803-7.391-30.43-34.115-30.43-48.725C14.759,19.246,28.409,5.592,45.188,5.592z"/><path d="M26.126,33.961l8.023,6.151l-2.893,9.692c-0.502,1.711-0.365,3.1,0.406,4.131c1.15,1.539,3.4,1.715,5.514,0.201      l8.203-5.752l8.193,5.797c1.029,0.74,1.988,1.1,2.932,1.1c1.045,0,1.994-0.467,2.602-1.281c0.773-1.031,0.91-2.422,0.404-4.141      l-2.896-9.75l7.979-6.155c2.338-1.813,2.191-3.596,1.896-4.499c-0.295-0.9-1.23-2.422-4.197-2.504l-9.965-0.215l-3.307-9.602      c-0.986-2.947-2.895-3.266-3.668-3.266c-0.775,0-2.686,0.32-3.656,3.244l-3.313,9.623l-9.984,0.215      c-3.107,0.086-3.984,1.807-4.217,2.543C23.95,30.229,23.677,32.133,26.126,33.961z M40.243,31.723      c1.053-0.023,1.979-0.699,2.322-1.695l2.789-8.104l2.793,8.105c0.342,0.994,1.268,1.67,2.32,1.693l8.553,0.184l-6.84,5.277      c-0.822,0.635-1.17,1.711-0.873,2.705l2.457,8.274l-6.926-4.901c-0.436-0.307-0.943-0.461-1.451-0.461      c-0.504,0-1.01,0.15-1.443,0.455l-6.941,4.866l2.457-8.229c0.297-1-0.053-2.078-0.879-2.713l-6.877-5.273L40.243,31.723z"   /></g></g></g></g></svg>
